<svg width="320" height="179" viewBox="0 0 320 179" fill="none" xmlns="http://www.w3.org/2000/svg">
<path d="M25.5271 3.37231H0.289307V69.7502H25.5271C45.3446 69.7502 57.0319 57.3574 57.0319 36.3066C57.0319 15.0861 45.3446 3.37231 25.5271 3.37231ZM23.8332 58.2063H14.0092V14.7465H23.8332C36.0287 14.7465 42.9733 22.3859 42.9733 36.3066C42.9733 50.5668 36.198 58.2063 23.8332 58.2063Z" fill="white"/>
<path d="M87.351 19.3301C72.6149 19.3301 62.9602 29.0067 62.9602 44.9645C62.9602 61.0921 72.4455 70.7687 87.351 70.7687C102.257 70.7687 111.742 61.2619 111.742 44.9645C111.742 29.0067 102.087 19.3301 87.351 19.3301ZM87.351 60.4131C80.7452 60.4131 76.5107 54.8109 76.5107 44.9645C76.5107 35.1182 80.7452 29.5159 87.351 29.5159C93.7875 29.5159 98.022 35.1182 98.022 44.9645C98.1914 54.8109 93.9569 60.4131 87.351 60.4131Z" fill="white"/>
<path d="M175.09 19.5C167.807 19.5 162.048 23.4046 159.846 29.6859H159.507C157.813 23.2348 152.901 19.5 145.787 19.5C139.012 19.5 133.761 23.4046 131.729 29.3463H131.39V20.3488H118.517V69.5805H131.898V39.8717C131.898 34.4393 135.286 30.5347 140.367 30.5347C145.279 30.5347 148.328 33.5905 148.328 38.8532V69.5805H161.201V39.702C161.201 34.2695 164.589 30.5347 169.67 30.5347C174.921 30.5347 177.631 33.5905 177.631 39.3624V69.5805H191.012V35.9672C191.181 26.1208 184.745 19.5 175.09 19.5Z" fill="white"/>
<path d="M221.67 19.3301C208.628 19.3301 200.497 25.9509 199.989 35.4577H212.185C212.862 31.8927 216.08 29.3462 220.993 29.3462C226.074 29.3462 229.292 32.0624 229.292 36.6461V39.8716L216.927 40.5506C204.732 41.2297 197.787 46.4924 197.787 55.4899C197.787 64.3177 204.901 70.4292 214.217 70.4292C220.315 70.4292 226.413 67.3734 229.292 62.1107H229.631V69.5804H242.504V35.7972C242.504 25.7811 234.374 19.3301 221.67 19.3301ZM229.292 51.5853C229.292 56.848 224.55 60.7526 218.621 60.7526C214.048 60.7526 210.999 58.5457 210.999 54.8109C210.999 51.2458 213.879 49.0389 218.791 48.6993L229.123 48.0203V51.5853H229.292Z" fill="white"/>
<path d="M258.087 0.995361C254.022 0.995361 250.973 4.05112 250.973 7.9557C250.973 11.8603 254.022 14.916 258.087 14.916C262.152 14.916 265.201 11.8603 265.201 7.9557C265.201 4.05112 262.152 0.995361 258.087 0.995361Z" fill="white"/>
<path d="M264.693 20.3484H251.312V69.5801H264.693V20.3484Z" fill="white"/>
<path d="M302.296 19.5C294.673 19.5 289.592 23.0651 286.882 29.1766H286.543V20.3488H273.67V69.5805H287.051V41.3996C287.051 34.9486 290.778 30.5347 296.875 30.5347C302.804 30.5347 305.853 34.2695 305.853 40.7206V69.7503H319.234V37.8346C319.234 26.2906 313.136 19.5 302.296 19.5Z" fill="white"/>
<path d="M44.1588 94.5356V137.656H43.8201L12.9928 94.5356H1.47485V160.914H14.6866V117.454H15.0253L46.022 160.914H57.5399V94.5356H44.1588Z" fill="#AC43E9"/>
<path d="M74.3086 92.3286C70.2434 92.3286 67.1946 95.3844 67.1946 99.289C67.1946 103.194 70.2434 106.249 74.3086 106.249C78.3737 106.249 81.4226 103.194 81.4226 99.289C81.4226 95.3844 78.2043 92.3286 74.3086 92.3286ZM67.5333 111.682V160.913H80.9144V111.682H67.5333Z" fill="#AC43E9"/>
<path d="M118.348 110.663C110.725 110.663 105.644 114.228 102.934 120.34H102.595V111.512H89.7222V160.744H103.103V132.733C103.103 126.282 106.999 121.868 112.927 121.868C118.856 121.868 121.905 125.603 121.905 132.054V161.083H135.286V129.168C135.455 117.624 129.357 110.663 118.348 110.663Z" fill="#AC43E9"/>
<path d="M144.093 111.682V162.951C144.093 167.025 142.4 168.553 137.826 168.553C137.318 168.553 136.471 168.553 136.133 168.383V178.23C136.81 178.399 138.673 178.399 139.859 178.399C151.377 178.399 157.475 173.137 157.475 163.121V127.81L144.093 111.682Z" fill="#AC43E9"/>
<path d="M188.471 110.663C175.429 110.663 167.299 117.284 166.791 126.791H178.986C179.664 123.226 182.882 120.679 187.794 120.679C192.875 120.679 196.093 123.396 196.093 127.979V131.205L183.729 131.884C171.533 132.563 164.589 137.826 164.589 146.823C164.589 155.651 171.703 161.762 181.019 161.762C187.116 161.762 193.214 158.707 196.093 153.444H196.432V160.914H209.305V127.13C209.305 117.114 201.006 110.663 188.471 110.663ZM196.093 142.919C196.093 148.181 191.351 152.086 185.422 152.086C180.849 152.086 177.8 149.709 177.8 146.144C177.8 142.579 180.68 140.372 185.592 140.033L195.924 139.354V142.919H196.093Z" fill="#AC43E9"/>
<path d="M245.722 132.393L236.406 130.356C232.172 129.337 229.97 127.64 229.97 125.263C229.97 122.038 233.018 120 237.592 120C242.504 120 245.722 122.377 246.061 126.451H258.426C258.256 116.945 250.295 110.663 237.93 110.663C225.396 110.663 217.266 116.775 217.266 126.282C217.266 133.582 222.009 138.335 231.325 140.542L240.471 142.579C244.875 143.598 246.569 144.956 246.569 147.502C246.569 150.728 243.52 152.765 238.439 152.765C233.188 152.765 229.8 150.388 229.292 146.314H216.25C216.927 155.99 225.058 162.272 238.1 162.272C251.142 162.272 259.95 155.821 259.95 146.144C259.611 138.505 255.546 134.6 245.722 132.393Z" fill="#AC43E9"/>
<path d="M141.553 102.684L157.305 96.7427L163.064 111.682L141.553 102.684Z" fill="#AC43E9"/>
</svg>
