<svg width="621" height="419" viewBox="0 0 621 419" fill="none" xmlns="http://www.w3.org/2000/svg">
<g filter="url(#filter0_d_20_1797)">
<rect x="35.9998" y="45.7144" width="549" height="313.327" fill="#293056"/>
<path d="M36 27.2857C36 24.9188 37.9188 23 40.2857 23L580.517 23C582.883 23 584.802 24.9188 584.802 27.2857V45.7143L36 45.7143V27.2857Z" fill="#344054"/>
<g clip-path="url(#clip0_20_1797)">
<path d="M101.684 37.1382L98.8632 34.3847C98.7956 34.3171 98.76 34.2353 98.76 34.1464C98.76 34.0539 98.7991 33.9649 98.8667 33.908L101.684 31.151C101.745 31.0905 101.823 31.0549 101.915 31.0549C102.1 31.0549 102.239 31.1972 102.239 31.3822C102.239 31.4676 102.204 31.553 102.147 31.6135L99.5569 34.1464L102.147 36.6793C102.204 36.7398 102.239 36.8216 102.239 36.9105C102.239 37.0955 102.1 37.2343 101.915 37.2343C101.823 37.2343 101.745 37.1987 101.684 37.1382Z" fill="#B1B1B5"/>
<path d="M113.226 37.2378C113.319 37.2378 113.397 37.2023 113.458 37.1418L116.279 34.3847C116.346 34.3171 116.382 34.2353 116.382 34.1464C116.382 34.0539 116.346 33.9685 116.279 33.908L113.461 31.1545C113.397 31.0905 113.319 31.0549 113.226 31.0549C113.041 31.0549 112.903 31.1972 112.903 31.3822C112.903 31.4676 112.938 31.553 112.995 31.6135L115.585 34.1464L112.995 36.6793C112.938 36.7398 112.903 36.8216 112.903 36.9105C112.903 37.0955 113.041 37.2378 113.226 37.2378Z" fill="#F3F4F8"/>
</g>
<path d="M79.4232 37.4265H85.5776C86.3247 37.4265 86.6947 37.0565 86.6947 36.3237V31.98C86.6947 31.2472 86.3247 30.8772 85.5776 30.8772H79.4232C78.6797 30.8772 78.3062 31.2436 78.3062 31.98V36.3237C78.3062 37.0601 78.6797 37.4265 79.4232 37.4265ZM79.4303 36.8538C79.0746 36.8538 78.8789 36.6652 78.8789 36.2952V32.0085C78.8789 31.6385 79.0746 31.45 79.4303 31.45H81.017V36.8538H79.4303ZM85.5705 31.45C85.9227 31.45 86.1219 31.6385 86.1219 32.0085V36.2952C86.1219 36.6652 85.9227 36.8538 85.5705 36.8538H81.5755V31.45H85.5705ZM80.3304 32.7698C80.4406 32.7698 80.5331 32.6737 80.5331 32.5706C80.5331 32.4638 80.4406 32.3713 80.3304 32.3713H79.5691C79.4623 32.3713 79.3663 32.4638 79.3663 32.5706C79.3663 32.6737 79.4623 32.7698 79.5691 32.7698H80.3304ZM80.3304 33.6912C80.4406 33.6912 80.5331 33.5951 80.5331 33.4884C80.5331 33.3817 80.4406 33.2927 80.3304 33.2927H79.5691C79.4623 33.2927 79.3663 33.3817 79.3663 33.4884C79.3663 33.5951 79.4623 33.6912 79.5691 33.6912H80.3304ZM80.3304 34.609C80.4406 34.609 80.5331 34.5201 80.5331 34.4133C80.5331 34.3066 80.4406 34.2141 80.3304 34.2141H79.5691C79.4623 34.2141 79.3663 34.3066 79.3663 34.4133C79.3663 34.5201 79.4623 34.609 79.5691 34.609H80.3304Z" fill="#B1B1B5"/>
<g filter="url(#filter1_i_20_1797)">
<path fill-rule="evenodd" clip-rule="evenodd" d="M47.5712 36.7143C48.9913 36.7143 50.1426 35.563 50.1426 34.1428C50.1426 32.7227 48.9913 31.5714 47.5712 31.5714C46.151 31.5714 44.9998 32.7227 44.9998 34.1428C44.9998 35.563 46.151 36.7143 47.5712 36.7143Z" fill="#ED5158"/>
</g>
<path d="M50.0355 34.1428C50.0355 35.5038 48.9322 36.6071 47.5712 36.6071C46.2102 36.6071 45.1069 35.5038 45.1069 34.1428C45.1069 32.7819 46.2102 31.6786 47.5712 31.6786C48.9322 31.6786 50.0355 32.7819 50.0355 34.1428Z" stroke="#ED5158" stroke-width="0.214286"/>
<g filter="url(#filter2_i_20_1797)">
<path fill-rule="evenodd" clip-rule="evenodd" d="M56.143 36.7144C57.5631 36.7144 58.7144 35.5631 58.7144 34.143C58.7144 32.7228 57.5631 31.5715 56.143 31.5715C54.7228 31.5715 53.5715 32.7228 53.5715 34.143C53.5715 35.5631 54.7228 36.7144 56.143 36.7144Z" fill="#FFA561"/>
</g>
<path d="M58.6072 34.143C58.6072 35.5039 57.5039 36.6072 56.143 36.6072C54.782 36.6072 53.6787 35.5039 53.6787 34.143C53.6787 32.782 54.782 31.6787 56.143 31.6787C57.5039 31.6787 58.6072 32.782 58.6072 34.143Z" stroke="#FFA561" stroke-width="0.214286"/>
<g filter="url(#filter3_i_20_1797)">
<path fill-rule="evenodd" clip-rule="evenodd" d="M64.7147 36.7144C66.1349 36.7144 67.2862 35.5631 67.2862 34.143C67.2862 32.7228 66.1349 31.5715 64.7147 31.5715C63.2946 31.5715 62.1433 32.7228 62.1433 34.143C62.1433 35.5631 63.2946 36.7144 64.7147 36.7144Z" fill="#61C454"/>
</g>
<path d="M67.179 34.143C67.179 35.5039 66.0757 36.6072 64.7147 36.6072C63.3538 36.6072 62.2505 35.5039 62.2505 34.143C62.2505 32.782 63.3538 31.6787 64.7147 31.6787C66.0757 31.6787 67.179 32.782 67.179 34.143Z" stroke="#00D764" stroke-width="0.214286"/>
<g clip-path="url(#clip1_20_1797)">
<rect x="199.776" y="28.1433" width="221.143" height="12" rx="2.57143" fill="#080E41"/>
</g>
</g>
<rect opacity="0.6" x="87" y="102" width="445" height="199" rx="35.6147" fill="#2F3142" stroke="#B1B1B5" stroke-linecap="round" stroke-dasharray="3 3"/>
<g filter="url(#filter4_d_20_1797)">
<circle cx="310.5" cy="200.5" r="49.5" fill="#080E41"/>
</g>
<path d="M291.478 165.776V179.98C290.646 180.76 289.866 181.541 289.189 182.425L284.038 171.603L291.478 165.776Z" fill="#F2F1F1"/>
<path d="M282.425 177.691L288.929 182.685C288.357 183.362 287.836 184.038 287.316 184.819L278.731 181.073L282.425 177.691Z" fill="#F2F1F1"/>
<path d="M300.844 193.872C298.086 193.872 295.849 196.109 295.849 198.866C295.849 201.624 298.086 203.861 300.844 203.861C303.601 203.861 305.839 201.624 305.839 198.866C305.839 196.109 303.601 193.872 300.844 193.872ZM302.301 199.491C301.104 199.491 300.168 198.554 300.168 197.358C300.168 196.161 301.104 195.224 302.301 195.224C303.497 195.224 304.434 196.161 304.434 197.358C304.434 198.554 303.445 199.491 302.301 199.491Z" fill="#F2F1F1"/>
<path d="M321.915 193.872C319.158 193.872 316.921 196.109 316.921 198.866C316.921 201.624 319.158 203.861 321.915 203.861C324.673 203.861 326.91 201.624 326.91 198.866C326.91 196.109 324.673 193.872 321.915 193.872ZM323.32 199.491C322.124 199.491 321.187 198.554 321.187 197.358C321.187 196.161 322.124 195.224 323.32 195.224C324.517 195.224 325.453 196.161 325.453 197.358C325.453 198.554 324.517 199.491 323.32 199.491Z" fill="#F2F1F1"/>
<path d="M317.961 213.955L322.852 227.43C326.91 225.609 330.5 222.903 333.31 219.522L317.961 213.955ZM340.022 201.103C340.022 185.183 327.118 172.279 311.198 172.279C303.601 172.279 296.681 175.245 291.531 180.032C290.698 180.812 289.918 181.593 289.241 182.477C289.189 182.581 289.085 182.633 289.033 182.737C288.461 183.414 287.941 184.09 287.42 184.87C284.247 189.501 282.374 195.12 282.374 201.155C282.374 217.076 295.277 229.979 311.198 229.979C314.267 229.979 317.233 229.511 319.99 228.627L312.758 208.804L335.287 216.972C338.253 212.394 340.022 206.931 340.022 201.103ZM316.765 206.983C316.244 206.775 315.724 206.618 315.152 206.462C315.1 206.462 315.1 206.462 315.048 206.41C311.614 205.63 308.128 206.358 307.972 206.41C307.556 206.514 307.191 206.618 306.827 206.775C298.502 209.74 290.126 204.797 288.825 196.005C288.201 191.842 290.49 188.773 294.652 189.033C297.462 189.189 300.376 190.021 302.977 191.166C308.804 193.663 314.371 193.559 320.146 191.166C322.8 190.021 325.766 189.241 328.627 189.085C332.269 188.877 334.35 191.478 334.246 195.172C333.934 203.497 324.673 209.792 316.765 206.983Z" fill="#F2F1F1"/>
<path d="M300.844 193.872C298.086 193.872 295.849 196.109 295.849 198.867C295.849 201.624 298.086 203.862 300.844 203.862C303.601 203.862 305.839 201.624 305.839 198.867C305.839 196.109 303.601 193.872 300.844 193.872ZM302.301 199.491C301.104 199.491 300.168 198.555 300.168 197.358C300.168 196.161 301.104 195.225 302.301 195.225C303.497 195.225 304.434 196.161 304.434 197.358C304.434 198.555 303.445 199.491 302.301 199.491Z" fill="#F2F1F1"/>
<path d="M321.915 193.872C319.158 193.872 316.921 196.109 316.921 198.867C316.921 201.624 319.158 203.862 321.915 203.862C324.673 203.862 326.91 201.624 326.91 198.867C326.91 196.109 324.673 193.872 321.915 193.872ZM323.32 199.491C322.124 199.491 321.187 198.555 321.187 197.358C321.187 196.161 322.124 195.225 323.32 195.225C324.517 195.225 325.453 196.161 325.453 197.358C325.453 198.555 324.517 199.491 323.32 199.491Z" fill="#F2F1F1"/>
<path d="M300.844 193.872C298.086 193.872 295.849 196.109 295.849 198.867C295.849 201.624 298.086 203.861 300.844 203.861C303.601 203.861 305.839 201.624 305.839 198.867C305.839 196.109 303.601 193.872 300.844 193.872ZM302.301 199.491C301.104 199.491 300.168 198.554 300.168 197.358C300.168 196.161 301.104 195.225 302.301 195.225C303.497 195.225 304.434 196.161 304.434 197.358C304.434 198.554 303.445 199.491 302.301 199.491Z" fill="#F2F1F1"/>
<path d="M321.916 193.872C319.158 193.872 316.921 196.109 316.921 198.866C316.921 201.624 319.158 203.861 321.916 203.861C324.673 203.861 326.91 201.624 326.91 198.866C326.91 196.109 324.673 193.872 321.916 193.872ZM323.32 199.491C322.124 199.491 321.187 198.554 321.187 197.358C321.187 196.161 322.124 195.224 323.32 195.224C324.517 195.224 325.454 196.161 325.454 197.358C325.454 198.554 324.517 199.491 323.32 199.491Z" fill="#F2F1F1"/>
<path d="M331.749 223.372L336.379 227.846L332.061 231.436L331.541 230.916L327.482 227.014L324.621 232.269L323.008 227.794L317.961 213.955L333.674 219.678L337.784 221.187L331.749 223.372Z" fill="#AC43E9"/>
<defs>
<filter id="filter0_d_20_1797" x="0.0741997" y="11.0248" width="620.851" height="407.892" filterUnits="userSpaceOnUse" color-interpolation-filters="sRGB">
<feFlood flood-opacity="0" result="BackgroundImageFix"/>
<feColorMatrix in="SourceAlpha" type="matrix" values="0 0 0 0 0 0 0 0 0 0 0 0 0 0 0 0 0 0 127 0" result="hardAlpha"/>
<feOffset dy="23.9504"/>
<feGaussianBlur stdDeviation="17.9628"/>
<feColorMatrix type="matrix" values="0 0 0 0 0 0 0 0 0 0 0 0 0 0 0 0 0 0 0.2 0"/>
<feBlend mode="normal" in2="BackgroundImageFix" result="effect1_dropShadow_20_1797"/>
<feBlend mode="normal" in="SourceGraphic" in2="effect1_dropShadow_20_1797" result="shape"/>
</filter>
<filter id="filter1_i_20_1797" x="44.9998" y="31.5714" width="5.14282" height="5.14282" filterUnits="userSpaceOnUse" color-interpolation-filters="sRGB">
<feFlood flood-opacity="0" result="BackgroundImageFix"/>
<feBlend mode="normal" in="SourceGraphic" in2="BackgroundImageFix" result="shape"/>
<feColorMatrix in="SourceAlpha" type="matrix" values="0 0 0 0 0 0 0 0 0 0 0 0 0 0 0 0 0 0 127 0" result="hardAlpha"/>
<feOffset/>
<feGaussianBlur stdDeviation="1.28571"/>
<feComposite in2="hardAlpha" operator="arithmetic" k2="-1" k3="1"/>
<feColorMatrix type="matrix" values="0 0 0 0 0.92549 0 0 0 0 0.427451 0 0 0 0 0.384314 0 0 0 1 0"/>
<feBlend mode="normal" in2="shape" result="effect1_innerShadow_20_1797"/>
</filter>
<filter id="filter2_i_20_1797" x="53.5715" y="31.5715" width="5.14282" height="5.14282" filterUnits="userSpaceOnUse" color-interpolation-filters="sRGB">
<feFlood flood-opacity="0" result="BackgroundImageFix"/>
<feBlend mode="normal" in="SourceGraphic" in2="BackgroundImageFix" result="shape"/>
<feColorMatrix in="SourceAlpha" type="matrix" values="0 0 0 0 0 0 0 0 0 0 0 0 0 0 0 0 0 0 127 0" result="hardAlpha"/>
<feOffset/>
<feGaussianBlur stdDeviation="1.28571"/>
<feComposite in2="hardAlpha" operator="arithmetic" k2="-1" k3="1"/>
<feColorMatrix type="matrix" values="0 0 0 0 0.960784 0 0 0 0 0.768627 0 0 0 0 0.317647 0 0 0 1 0"/>
<feBlend mode="normal" in2="shape" result="effect1_innerShadow_20_1797"/>
</filter>
<filter id="filter3_i_20_1797" x="62.1433" y="31.5715" width="5.14282" height="5.14282" filterUnits="userSpaceOnUse" color-interpolation-filters="sRGB">
<feFlood flood-opacity="0" result="BackgroundImageFix"/>
<feBlend mode="normal" in="SourceGraphic" in2="BackgroundImageFix" result="shape"/>
<feColorMatrix in="SourceAlpha" type="matrix" values="0 0 0 0 0 0 0 0 0 0 0 0 0 0 0 0 0 0 127 0" result="hardAlpha"/>
<feOffset/>
<feGaussianBlur stdDeviation="1.28571"/>
<feComposite in2="hardAlpha" operator="arithmetic" k2="-1" k3="1"/>
<feColorMatrix type="matrix" values="0 0 0 0 0.407843 0 0 0 0 0.8 0 0 0 0 0.345098 0 0 0 1 0"/>
<feBlend mode="normal" in2="shape" result="effect1_innerShadow_20_1797"/>
</filter>
<filter id="filter4_d_20_1797" x="201.6" y="111.4" width="217.8" height="217.8" filterUnits="userSpaceOnUse" color-interpolation-filters="sRGB">
<feFlood flood-opacity="0" result="BackgroundImageFix"/>
<feColorMatrix in="SourceAlpha" type="matrix" values="0 0 0 0 0 0 0 0 0 0 0 0 0 0 0 0 0 0 127 0" result="hardAlpha"/>
<feOffset dy="19.8"/>
<feGaussianBlur stdDeviation="29.7"/>
<feColorMatrix type="matrix" values="0 0 0 0 0.754702 0 0 0 0 0.447222 0 0 0 0 0.933333 0 0 0 0.25 0"/>
<feBlend mode="normal" in2="BackgroundImageFix" result="effect1_dropShadow_20_1797"/>
<feBlend mode="normal" in="SourceGraphic" in2="effect1_dropShadow_20_1797" result="shape"/>
</filter>
<clipPath id="clip0_20_1797">
<rect width="28.2857" height="12" fill="white" transform="translate(93.4285 28.1431)"/>
</clipPath>
<clipPath id="clip1_20_1797">
<rect width="257.251" height="12" fill="white" transform="translate(181.776 28.1431)"/>
</clipPath>
</defs>
</svg>
