<svg width="138" height="54" viewBox="0 0 138 54" fill="none" xmlns="http://www.w3.org/2000/svg">
<path d="M65.001 9.5374H58.7283V26.0352H65.001C69.9265 26.0352 72.8313 22.9551 72.8313 17.723C72.8313 12.4488 69.9265 9.5374 65.001 9.5374ZM64.58 23.166H62.1383V12.3644H64.58C67.6111 12.3644 69.3371 14.2631 69.3371 17.723C69.3371 21.2673 67.6532 23.166 64.58 23.166Z" fill="#080E41"/>
<path d="M80.3669 13.5036C76.7043 13.5036 74.3047 15.9086 74.3047 19.8748C74.3047 23.8833 76.6622 26.2883 80.3669 26.2883C84.0716 26.2883 86.4291 23.9255 86.4291 19.8748C86.4291 15.9086 84.0295 13.5036 80.3669 13.5036ZM80.3669 23.7145C78.725 23.7145 77.6726 22.3221 77.6726 19.8748C77.6726 17.4276 78.725 16.0352 80.3669 16.0352C81.9666 16.0352 83.0191 17.4276 83.0191 19.8748C83.0612 22.3221 82.0087 23.7145 80.3669 23.7145Z" fill="#080E41"/>
<path d="M102.174 13.5457C100.364 13.5457 98.9324 14.5162 98.3851 16.0774H98.3009C97.8799 14.474 96.6591 13.5457 94.8909 13.5457C93.207 13.5457 91.9019 14.5162 91.3967 15.993H91.3125V13.7567H88.113V25.993H91.4388V18.609C91.4388 17.2588 92.2808 16.2884 93.5438 16.2884C94.7646 16.2884 95.5224 17.0478 95.5224 18.3559V25.993H98.7219V18.5668C98.7219 17.2166 99.5639 16.2884 100.827 16.2884C102.132 16.2884 102.805 17.0478 102.805 18.4824V25.993H106.131V17.6386C106.173 15.1913 104.574 13.5457 102.174 13.5457Z" fill="#080E41"/>
<path d="M113.751 13.5036C110.509 13.5036 108.489 15.1491 108.362 17.512H111.394C111.562 16.6259 112.362 15.993 113.583 15.993C114.846 15.993 115.646 16.6681 115.646 17.8073V18.609L112.572 18.7778C109.541 18.9466 107.815 20.2546 107.815 22.4909C107.815 24.685 109.583 26.2039 111.899 26.2039C113.414 26.2039 114.93 25.4444 115.646 24.1364H115.73V25.993H118.929V17.5964C118.929 15.1069 116.908 13.5036 113.751 13.5036ZM115.646 21.5204C115.646 22.8284 114.467 23.7989 112.993 23.7989C111.857 23.7989 111.099 23.2504 111.099 22.3221C111.099 21.436 111.815 20.8875 113.035 20.8031L115.603 20.6343V21.5204H115.646Z" fill="#080E41"/>
<path d="M122.802 8.94662C121.792 8.94662 121.034 9.70612 121.034 10.6766C121.034 11.647 121.792 12.4065 122.802 12.4065C123.813 12.4065 124.57 11.647 124.57 10.6766C124.57 9.70612 123.813 8.94662 122.802 8.94662Z" fill="#080E41"/>
<path d="M124.444 13.7567H121.118V25.993H124.444V13.7567Z" fill="#080E41"/>
<path d="M133.79 13.5457C131.896 13.5457 130.633 14.4318 129.959 15.9508H129.875V13.7567H126.676V25.993H130.001V18.9888C130.001 17.3854 130.928 16.2884 132.443 16.2884C133.917 16.2884 134.674 17.2166 134.674 18.82V26.0352H138V18.1027C138 15.2335 136.485 13.5457 133.79 13.5457Z" fill="#080E41"/>
<path d="M69.6318 32.1952V42.9125H69.5476L61.8857 32.1952H59.0229V48.6931H62.3066V37.8914H62.3908L70.0949 48.6931H72.9576V32.1952H69.6318Z" fill="#AC43E9"/>
<path d="M77.1253 31.6467C76.115 31.6467 75.3572 32.4062 75.3572 33.3767C75.3572 34.3472 76.115 35.1066 77.1253 35.1066C78.1357 35.1066 78.8935 34.3472 78.8935 33.3767C78.8935 32.4062 78.0936 31.6467 77.1253 31.6467ZM75.4414 36.4569V48.6931H78.7672V36.4569H75.4414Z" fill="#AC43E9"/>
<path d="M88.071 36.2037C86.1765 36.2037 84.9136 37.0898 84.24 38.6088H84.1558V36.4147H80.9563V48.651H84.2821V41.6889C84.2821 40.0856 85.2504 38.9885 86.7238 38.9885C88.1973 38.9885 88.955 39.9168 88.955 41.5202V48.7353H92.2808V40.8029C92.3229 37.9337 90.8074 36.2037 88.071 36.2037Z" fill="#AC43E9"/>
<path d="M94.4698 36.4569V49.1995C94.4698 50.2121 94.0489 50.5919 92.9122 50.5919C92.7859 50.5919 92.5754 50.5919 92.4912 50.5497V52.9969C92.6596 53.0391 93.1227 53.0391 93.4174 53.0391C96.2801 53.0391 97.7956 51.7311 97.7956 49.2417V40.4653L94.4698 36.4569Z" fill="#AC43E9"/>
<path d="M105.5 36.2037C102.258 36.2037 100.238 37.8493 100.111 40.2122H103.142C103.311 39.3261 104.111 38.6932 105.331 38.6932C106.594 38.6932 107.394 39.3683 107.394 40.5075V41.3092L104.321 41.478C101.29 41.6468 99.564 42.9548 99.564 45.191C99.564 47.3851 101.332 48.9041 103.648 48.9041C105.163 48.9041 106.679 48.1446 107.394 46.8366H107.479V48.6931H110.678V40.2965C110.678 37.8071 108.615 36.2037 105.5 36.2037ZM107.394 44.2206C107.394 45.5286 106.216 46.4991 104.742 46.4991C103.605 46.4991 102.848 45.9083 102.848 45.0223C102.848 44.1362 103.563 43.5877 104.784 43.5033L107.352 43.3345V44.2206H107.394Z" fill="#AC43E9"/>
<path d="M119.729 41.6046L117.414 41.0982C116.361 40.8451 115.814 40.4231 115.814 39.8324C115.814 39.0307 116.572 38.5244 117.708 38.5244C118.929 38.5244 119.729 39.1151 119.813 40.1278H122.887C122.845 37.7649 120.866 36.2037 117.793 36.2037C114.677 36.2037 112.657 37.7227 112.657 40.0856C112.657 41.8999 113.835 43.0813 116.151 43.6299L118.424 44.1362C119.519 44.3894 119.94 44.7269 119.94 45.3598C119.94 46.1615 119.182 46.6678 117.919 46.6678C116.614 46.6678 115.772 46.0771 115.646 45.0645H112.404C112.572 47.4695 114.593 49.0307 117.835 49.0307C121.076 49.0307 123.265 47.4273 123.265 45.0223C123.181 43.1235 122.171 42.1531 119.729 41.6046Z" fill="#AC43E9"/>
<path d="M93.8386 34.2208L97.7538 32.744L99.1852 36.4571L93.8386 34.2208Z" fill="#AC43E9"/>
<path d="M42.3519 46.3302L46.0566 49.8745L42.6045 52.6593L42.2256 52.2795L38.984 49.1572L36.7528 53.3766L35.4477 49.7901L31.4905 38.8619L43.9096 43.3766L47.1512 44.558L42.3519 46.3302Z" fill="white"/>
<path d="M10.2721 0V11.5189C9.59848 12.1519 8.967 12.7848 8.41972 13.5021L4.25195 4.72572L10.2721 0Z" fill="#080E41"/>
<path d="M2.9469 9.66237L8.20923 13.713C7.74614 14.2615 7.32516 14.81 6.90417 15.4429L0 12.3628L2.9469 9.66237Z" fill="#080E41"/>
<path d="M17.6401 22.5749C15.4089 22.5749 13.5986 24.3892 13.5986 26.6255C13.5986 28.8618 15.4089 30.6761 17.6401 30.6761C19.8713 30.6761 21.6816 28.8618 21.6816 26.6255C21.6816 24.3892 19.8713 22.5749 17.6401 22.5749ZM18.8189 27.1318C17.8506 27.1318 17.0928 26.3723 17.0928 25.4019C17.0928 24.4314 17.8506 23.6719 18.8189 23.6719C19.7871 23.6719 20.5449 24.4314 20.5449 25.4019C20.5449 26.3723 19.745 27.1318 18.8189 27.1318Z" fill="#080E41"/>
<path d="M34.6899 22.5749C32.4587 22.5749 30.6484 24.3892 30.6484 26.6255C30.6484 28.8618 32.4587 30.6761 34.6899 30.6761C36.9211 30.6761 38.7314 28.8618 38.7314 26.6255C38.7314 24.3892 36.9211 22.5749 34.6899 22.5749ZM35.8266 27.1318C34.8583 27.1318 34.1005 26.3723 34.1005 25.4019C34.1005 24.4314 34.8583 23.6719 35.8266 23.6719C36.7948 23.6719 37.5526 24.4314 37.5526 25.4019C37.5526 26.3723 36.7948 27.1318 35.8266 27.1318Z" fill="#080E41"/>
<path d="M31.4905 38.8618L35.4478 49.7901C38.7315 48.3133 41.6363 46.1192 43.9096 43.3766L31.4905 38.8618ZM49.3403 28.4399C49.3403 15.5286 38.8999 5.06447 26.0177 5.06447C19.8713 5.06447 14.2722 7.46952 10.1044 11.3514C9.43085 11.9843 8.79937 12.6172 8.25208 13.3345C8.20999 13.4189 8.12579 13.4611 8.08369 13.5455C7.62061 14.094 7.19962 14.6425 6.77863 15.2754C4.21062 19.0307 2.69507 23.5876 2.69507 28.4821C2.69507 41.3935 13.1355 51.8576 26.0177 51.8576C28.5015 51.8576 30.9011 51.4778 33.1324 50.7605L27.2807 34.6424L45.5093 41.2669C47.909 37.596 49.3403 33.1656 49.3403 28.4399ZM30.5222 33.2078C30.1013 33.0391 29.6803 32.9125 29.2172 32.7859C29.1751 32.7859 29.1751 32.7859 29.133 32.7437C26.3545 32.1108 23.5339 32.7015 23.4076 32.7437C23.0708 32.8281 22.7761 32.9125 22.4814 33.0391C15.7456 35.4441 8.96776 31.4357 7.9153 24.3049C7.41011 20.9294 9.26245 18.44 12.6303 18.6509C14.9037 18.7775 17.2612 19.4526 19.3661 20.3809C24.0812 22.4062 28.5857 22.3218 33.2587 20.3809C35.4057 19.4526 37.8053 18.8197 40.1207 18.6931C43.0676 18.5243 44.7516 20.634 44.6674 23.6298C44.4148 30.3808 36.9212 35.4863 30.5222 33.2078Z" fill="#080E41"/>
<path d="M17.6401 22.5749C15.4089 22.5749 13.5986 24.3892 13.5986 26.6255C13.5986 28.8618 15.4089 30.6761 17.6401 30.6761C19.8713 30.6761 21.6816 28.8618 21.6816 26.6255C21.6816 24.3892 19.8713 22.5749 17.6401 22.5749ZM18.8189 27.1318C17.8506 27.1318 17.0928 26.3723 17.0928 25.4019C17.0928 24.4314 17.8506 23.6719 18.8189 23.6719C19.7871 23.6719 20.5449 24.4314 20.5449 25.4019C20.5449 26.3723 19.745 27.1318 18.8189 27.1318Z" fill="#080E41"/>
<path d="M34.6899 22.5749C32.4587 22.5749 30.6484 24.3892 30.6484 26.6255C30.6484 28.8618 32.4587 30.6761 34.6899 30.6761C36.9211 30.6761 38.7314 28.8618 38.7314 26.6255C38.7314 24.3892 36.9211 22.5749 34.6899 22.5749ZM35.8266 27.1318C34.8583 27.1318 34.1005 26.3723 34.1005 25.4019C34.1005 24.4314 34.8583 23.6719 35.8266 23.6719C36.7948 23.6719 37.5526 24.4314 37.5526 25.4019C37.5526 26.3723 36.7948 27.1318 35.8266 27.1318Z" fill="#080E41"/>
<path d="M17.6401 22.5749C15.4089 22.5749 13.5986 24.3892 13.5986 26.6255C13.5986 28.8618 15.4089 30.6761 17.6401 30.6761C19.8713 30.6761 21.6816 28.8618 21.6816 26.6255C21.6816 24.3892 19.8713 22.5749 17.6401 22.5749ZM18.8189 27.1318C17.8506 27.1318 17.0928 26.3723 17.0928 25.4019C17.0928 24.4314 17.8506 23.6719 18.8189 23.6719C19.7871 23.6719 20.5449 24.4314 20.5449 25.4019C20.5449 26.3723 19.745 27.1318 18.8189 27.1318Z" fill="#080E41"/>
<path d="M34.6901 22.5751C32.4589 22.5751 30.6487 24.3894 30.6487 26.6257C30.6487 28.862 32.4589 30.6763 34.6901 30.6763C36.9214 30.6763 38.7316 28.862 38.7316 26.6257C38.7316 24.3894 36.9214 22.5751 34.6901 22.5751ZM35.8268 27.132C34.8585 27.132 34.1008 26.3725 34.1008 25.4021C34.1008 24.4316 34.8585 23.6721 35.8268 23.6721C36.7951 23.6721 37.5528 24.4316 37.5528 25.4021C37.5528 26.3725 36.7951 27.132 35.8268 27.132Z" fill="#080E41"/>
<path d="M42.6466 46.4989L46.3934 50.1275L42.8992 53.0389L42.4782 52.617L39.1945 49.4524L36.8791 53.714L35.574 50.0853L31.4905 38.8618L44.2464 43.5031L47.53 44.7267L42.6466 46.4989Z" fill="#AC43E9"/>
</svg>
