<svg width="180" height="180" viewBox="0 0 180 180" fill="none" xmlns="http://www.w3.org/2000/svg">
<g filter="url(#filter0_d_20_1505)">
<circle cx="89.7542" cy="76.7543" r="49.5" transform="rotate(15.2125 89.7542 76.7543)" fill="#080E41"/>
</g>
<path d="M80.5107 38.2559L76.7836 51.962C75.7755 52.4967 74.8177 53.045 73.9329 53.721L71.8022 41.9266L80.5107 38.2559Z" fill="#F2F1F1"/>
<path d="M68.6483 47.3774L73.6134 53.9037C72.8837 54.4062 72.2042 54.9223 71.4973 55.5389L64.1963 49.6715L68.6483 47.3774Z" fill="#F2F1F1"/>
<path d="M82.1757 67.8243C79.5148 67.1007 76.7689 68.6725 76.0453 71.3334C75.3218 73.9943 76.8935 76.7402 79.5544 77.4638C82.2154 78.1874 84.9613 76.6156 85.6848 73.9547C86.4084 71.2938 84.8366 68.5479 82.1757 67.8243ZM82.107 73.6288C80.9523 73.3148 80.2943 72.1653 80.6083 71.0106C80.9223 69.8559 82.0718 69.1979 83.2265 69.5119C84.3812 69.8259 85.0392 70.9754 84.7252 72.1301C84.4112 73.2848 83.2115 73.9291 82.107 73.6288Z" fill="#F2F1F1"/>
<path d="M102.509 73.3535C99.8478 72.6299 97.1019 74.2017 96.3783 76.8626C95.6548 79.5235 97.2266 82.2694 99.8875 82.993C102.548 83.7165 105.294 82.1448 106.018 79.4839C106.741 76.823 105.17 74.0771 102.509 73.3535ZM102.39 79.1443C101.235 78.8303 100.577 77.6809 100.891 76.5261C101.205 75.3714 102.355 74.7134 103.509 75.0274C104.664 75.3414 105.322 76.4909 105.008 77.6456C104.694 78.8004 103.545 79.4583 102.39 79.1443Z" fill="#F2F1F1"/>
<path d="M93.4235 91.6951L94.6068 105.982C99.0007 105.289 103.175 103.621 106.773 101.095L93.4235 91.6951ZM118.083 85.0829C122.26 69.72 113.195 53.8831 97.8323 49.7055C90.5022 47.7123 83.0467 48.7582 76.8203 52.0256C75.8122 52.5602 74.8544 53.1085 73.9696 53.7845C73.8921 53.8713 73.778 53.8942 73.7005 53.9809C72.9708 54.4834 72.2912 54.9996 71.5844 55.6162C67.3068 59.2517 64.0249 64.1824 62.4412 70.0063C58.2636 85.3692 67.3288 101.206 82.6918 105.384C85.6539 106.189 88.6385 106.515 91.5315 106.386L89.7545 85.3595L109.35 99.1533C113.413 95.5134 116.554 90.706 118.083 85.0829ZM94.0982 84.6535C93.6507 84.3162 93.1896 84.029 92.6783 83.7283C92.6281 83.7146 92.6281 83.7146 92.5915 83.6507C89.4827 81.9966 85.9278 81.7848 85.7636 81.794C85.3346 81.7852 84.9559 81.7901 84.5635 81.8451C75.7524 82.5225 68.9662 75.5549 70.0183 66.7288C70.5081 62.5485 73.5226 60.1871 77.4708 61.5303C80.1409 62.4181 82.734 63.986 84.944 65.7731C89.9117 69.7121 95.311 71.0724 101.512 70.2784C104.373 69.8701 107.439 69.8952 110.241 70.4955C113.81 71.2504 115.136 74.3067 114.066 77.844C111.581 85.795 100.992 89.4398 94.0982 84.6535Z" fill="#F2F1F1"/>
<path d="M82.1755 67.8247C79.5146 67.1011 76.7687 68.6729 76.0451 71.3338C75.3215 73.9947 76.8933 76.7406 79.5542 77.4642C82.2151 78.1877 84.961 76.6159 85.6846 73.955C86.4082 71.2941 84.8364 68.5482 82.1755 67.8247ZM82.1068 73.6292C80.952 73.3151 80.2941 72.1657 80.6081 71.011C80.9221 69.8562 82.0715 69.1983 83.2263 69.5123C84.381 69.8263 85.039 70.9757 84.7249 72.1305C84.4109 73.2852 83.2113 73.9295 82.1068 73.6292Z" fill="#F2F1F1"/>
<path d="M102.509 73.3538C99.8478 72.6303 97.1019 74.2021 96.3783 76.863C95.6548 79.5239 97.2266 82.2698 99.8875 82.9933C102.548 83.7169 105.294 82.1451 106.018 79.4842C106.741 76.8233 105.17 74.0774 102.509 73.3538ZM102.39 79.1447C101.235 78.8307 100.577 77.6812 100.891 76.5265C101.205 75.3718 102.355 74.7138 103.509 75.0278C104.664 75.3418 105.322 76.4913 105.008 77.646C104.694 78.8007 103.545 79.4587 102.39 79.1447Z" fill="#F2F1F1"/>
<path d="M82.1755 67.8244C79.5146 67.1008 76.7687 68.6726 76.0451 71.3335C75.3215 73.9944 76.8933 76.7403 79.5542 77.4639C82.2151 78.1875 84.961 76.6157 85.6846 73.9548C86.4082 71.2939 84.8364 68.548 82.1755 67.8244ZM82.1068 73.6289C80.952 73.3149 80.2941 72.1655 80.6081 71.0107C80.9221 69.856 82.0715 69.198 83.2263 69.512C84.381 69.826 85.039 70.9755 84.7249 72.1302C84.4109 73.285 83.2113 73.9293 82.1068 73.6289Z" fill="#F2F1F1"/>
<path d="M102.509 73.3535C99.8478 72.6299 97.1019 74.2017 96.3783 76.8626C95.6548 79.5235 97.2266 82.2694 99.8875 82.993C102.548 83.7165 105.294 82.1448 106.018 79.4839C106.741 76.823 105.17 74.0771 102.509 73.3535ZM102.39 79.1443C101.235 78.8303 100.577 77.6809 100.891 76.5261C101.205 75.3714 102.355 74.7134 103.509 75.0274C104.664 75.3414 105.322 76.4909 105.008 77.6456C104.694 78.8004 103.545 79.4583 102.39 79.1443Z" fill="#F2F1F1"/>
<path d="M104.257 104.4L107.551 109.933L102.442 112.264L102.076 111.626L99.1842 106.795L95.044 111.115L94.6618 106.374L93.4233 91.6952L107.084 101.341L110.654 103.875L104.257 104.4Z" fill="#AC43E9"/>
<defs>
<filter id="filter0_d_20_1505" x="0.0416985" y="0.441943" width="179.425" height="179.425" filterUnits="userSpaceOnUse" color-interpolation-filters="sRGB">
<feFlood flood-opacity="0" result="BackgroundImageFix"/>
<feColorMatrix in="SourceAlpha" type="matrix" values="0 0 0 0 0 0 0 0 0 0 0 0 0 0 0 0 0 0 127 0" result="hardAlpha"/>
<feOffset dy="13.4"/>
<feGaussianBlur stdDeviation="20.1"/>
<feColorMatrix type="matrix" values="0 0 0 0 0.754702 0 0 0 0 0.447222 0 0 0 0 0.933333 0 0 0 0.25 0"/>
<feBlend mode="normal" in2="BackgroundImageFix" result="effect1_dropShadow_20_1505"/>
<feBlend mode="normal" in="SourceGraphic" in2="effect1_dropShadow_20_1505" result="shape"/>
</filter>
</defs>
</svg>
