<svg width="199" height="217" viewBox="0 0 199 217" fill="none" xmlns="http://www.w3.org/2000/svg">
<path d="M41.3289 0V46.3457C38.6188 48.8922 36.0781 51.4386 33.8761 54.3246L17.1074 19.0136L41.3289 0Z" fill="white"/>
<path d="M11.8567 38.8757L33.0293 55.1731C31.1661 57.3801 29.4723 59.587 27.7785 62.1335L0 49.7407L11.8567 38.8757Z" fill="white"/>
<path d="M70.9737 90.8286C61.9965 90.8286 54.7131 98.1285 54.7131 107.126C54.7131 116.124 61.9965 123.423 70.9737 123.423C79.9509 123.423 87.2343 116.124 87.2343 107.126C87.2343 98.1285 79.9509 90.8286 70.9737 90.8286ZM75.7164 109.163C71.8206 109.163 68.7717 106.107 68.7717 102.203C68.7717 98.2983 71.8206 95.2425 75.7164 95.2425C79.6121 95.2425 82.661 98.2983 82.661 102.203C82.661 106.107 79.4427 109.163 75.7164 109.163Z" fill="white"/>
<path d="M139.573 90.8286C130.596 90.8286 123.312 98.1285 123.312 107.126C123.312 116.124 130.596 123.423 139.573 123.423C148.55 123.423 155.833 116.124 155.833 107.126C155.833 98.1285 148.55 90.8286 139.573 90.8286ZM144.146 109.163C140.25 109.163 137.201 106.107 137.201 102.203C137.201 98.2983 140.25 95.2425 144.146 95.2425C148.042 95.2425 151.091 98.2983 151.091 102.203C151.091 106.107 148.042 109.163 144.146 109.163Z" fill="white"/>
<path d="M126.7 156.358L142.622 200.327C155.834 194.385 167.521 185.557 176.667 174.523L126.7 156.358ZM198.518 114.426C198.518 62.4781 156.511 20.3765 104.681 20.3765C79.9509 20.3765 57.4232 30.053 40.6545 45.6714C37.9444 48.2178 35.4037 50.7643 33.2018 53.6503C33.0324 53.9898 32.6936 54.1596 32.5243 54.4991C30.6611 56.7061 28.9673 58.913 27.2735 61.4595C16.9412 76.5685 10.8435 94.9031 10.8435 114.596C10.8435 166.544 52.85 208.645 104.681 208.645C114.674 208.645 124.329 207.117 133.306 204.231L109.762 139.381L183.104 166.034C192.759 151.265 198.518 133.44 198.518 114.426ZM122.804 133.609C121.11 132.93 119.417 132.421 117.553 131.912C117.384 131.912 117.384 131.912 117.215 131.742C106.036 129.196 94.687 131.572 94.1789 131.742C92.8238 132.082 91.6382 132.421 90.4525 132.93C63.3516 142.607 36.0813 126.479 31.8467 97.7891C29.8142 84.2079 37.2669 74.1918 50.8174 75.0406C59.964 75.5499 69.4493 78.2662 77.9183 82.001C96.889 90.1497 115.013 89.8102 133.814 82.001C142.452 78.2662 152.107 75.7197 161.423 75.2104C173.28 74.5313 180.055 83.0196 179.716 95.0728C178.7 122.235 148.55 142.777 122.804 133.609Z" fill="white"/>
<path d="M70.9737 90.8286C61.9965 90.8286 54.7131 98.1285 54.7131 107.126C54.7131 116.124 61.9965 123.423 70.9737 123.423C79.9509 123.423 87.2343 116.124 87.2343 107.126C87.2343 98.1285 79.9509 90.8286 70.9737 90.8286ZM75.7164 109.163C71.8206 109.163 68.7717 106.107 68.7717 102.203C68.7717 98.2983 71.8206 95.2425 75.7164 95.2425C79.6121 95.2425 82.661 98.2983 82.661 102.203C82.661 106.107 79.4427 109.163 75.7164 109.163Z" fill="white"/>
<path d="M139.573 90.8286C130.596 90.8286 123.312 98.1285 123.312 107.126C123.312 116.124 130.596 123.423 139.573 123.423C148.55 123.423 155.833 116.124 155.833 107.126C155.833 98.1285 148.55 90.8286 139.573 90.8286ZM144.146 109.163C140.25 109.163 137.201 106.107 137.201 102.203C137.201 98.2983 140.25 95.2425 144.146 95.2425C148.042 95.2425 151.091 98.2983 151.091 102.203C151.091 106.107 148.042 109.163 144.146 109.163Z" fill="white"/>
<path d="M70.9737 90.8286C61.9965 90.8286 54.7131 98.1285 54.7131 107.126C54.7131 116.124 61.9965 123.423 70.9737 123.423C79.9509 123.423 87.2343 116.124 87.2343 107.126C87.2343 98.1285 79.9509 90.8286 70.9737 90.8286ZM75.7164 109.163C71.8206 109.163 68.7717 106.107 68.7717 102.203C68.7717 98.2983 71.8206 95.2425 75.7164 95.2425C79.6121 95.2425 82.661 98.2983 82.661 102.203C82.661 106.107 79.4427 109.163 75.7164 109.163Z" fill="white"/>
<path d="M139.573 90.8289C130.596 90.8289 123.312 98.1287 123.312 107.126C123.312 116.124 130.596 123.424 139.573 123.424C148.55 123.424 155.833 116.124 155.833 107.126C155.833 98.1287 148.55 90.8289 139.573 90.8289ZM144.146 109.163C140.25 109.163 137.201 106.108 137.201 102.203C137.201 98.2985 140.25 95.2427 144.146 95.2427C148.042 95.2427 151.091 98.2985 151.091 102.203C151.091 106.108 148.042 109.163 144.146 109.163Z" fill="white"/>
<path d="M171.586 187.085L186.661 201.685L172.602 213.399L170.909 211.701L157.697 198.969L148.381 216.115L143.13 201.515L126.7 156.358L178.023 175.032L191.234 179.955L171.586 187.085Z" fill="#AC43E9"/>
</svg>
