<svg width="122" height="106" viewBox="0 0 122 106" fill="none" xmlns="http://www.w3.org/2000/svg">
<path d="M115.592 50.7192C115.878 49.84 117.122 49.84 117.408 50.7192C117.536 51.1121 117.903 51.3781 118.316 51.3781C119.24 51.3781 119.625 52.5605 118.878 53.103C118.543 53.3457 118.403 53.7765 118.531 54.1696C118.817 55.048 117.809 55.7775 117.061 55.2351C116.727 54.9924 116.273 54.9924 115.939 55.2351C115.191 55.7775 114.183 55.048 114.469 54.1696C114.597 53.7765 114.457 53.3457 114.122 53.103C113.375 52.5605 113.76 51.3781 114.684 51.3781C115.097 51.3781 115.464 51.1121 115.592 50.7192Z" fill="#6941C6"/>
<rect x="-0.707645" width="74.9438" height="74.9438" rx="22.4824" transform="matrix(0.707645 -0.706569 0.707645 0.706569 0.293116 52.4209)" stroke="#7CD4FD" stroke-dasharray="3 3"/>
<rect width="59.9544" height="59.9544" rx="17.862" transform="matrix(0.707645 -0.706569 0.707645 0.706569 10.5 52.9209)" fill="url(#paint0_linear_20_437)"/>
<path d="M88.7735 87.1049C89.0024 86.4015 89.9976 86.4015 90.2265 87.1049C90.3288 87.4192 90.6222 87.632 90.9527 87.632C91.6917 87.632 92.0003 88.578 91.4021 89.0119C91.1344 89.2061 91.0224 89.5507 91.1248 89.8652C91.3534 90.568 90.5473 91.1515 89.9491 90.7176C89.6815 90.5235 89.3185 90.5235 89.0509 90.7176C88.4527 91.1515 87.6466 90.568 87.8752 89.8652C87.9776 89.5507 87.8656 89.2061 87.5979 89.0119C86.9997 88.578 87.3083 87.632 88.0473 87.632C88.3778 87.632 88.6712 87.4192 88.7735 87.1049Z" fill="#6941C6"/>
<path d="M8.59186 87.663C8.87796 86.7839 10.122 86.7839 10.4081 87.663C10.536 88.0559 10.9027 88.322 11.3159 88.322C12.2397 88.322 12.6254 89.5044 11.8776 90.0468C11.543 90.2895 11.403 90.7203 11.531 91.1134C11.8168 91.9919 10.8092 92.7214 10.0614 92.1789C9.72693 91.9363 9.27307 91.9363 8.93857 92.1789C8.19082 92.7214 7.18319 91.9919 7.46905 91.1134C7.59697 90.7203 7.45697 90.2895 7.12236 90.0468C6.37462 89.5044 6.76035 88.322 7.68412 88.322C8.09728 88.322 8.46401 88.0559 8.59186 87.663Z" fill="#6941C6"/>
<path d="M10.5919 14.7739C10.878 13.8947 12.122 13.8947 12.4081 14.7739C12.536 15.1668 12.9027 15.4328 13.3159 15.4328C14.2397 15.4328 14.6254 16.6152 13.8776 17.1576C13.543 17.4004 13.403 17.8312 13.531 18.2243C13.8168 19.1027 12.8092 19.8322 12.0614 19.2898C11.7269 19.0471 11.2731 19.0471 10.9386 19.2898C10.1908 19.8322 9.18319 19.1027 9.46905 18.2243C9.59697 17.8312 9.45697 17.4004 9.12236 17.1576C8.37462 16.6152 8.76035 15.4328 9.68412 15.4328C10.0973 15.4328 10.464 15.1668 10.5919 14.7739Z" fill="#6941C6"/>
<path d="M89.5919 3.79073C89.878 2.91154 91.122 2.91154 91.4081 3.79073C91.536 4.18361 91.9027 4.44966 92.3159 4.44966C93.2397 4.44966 93.6254 5.63205 92.8776 6.17449C92.543 6.41723 92.403 6.84803 92.531 7.24112C92.8168 8.11956 91.8092 8.84905 91.0614 8.30661C90.7269 8.06395 90.2731 8.06395 89.9386 8.30661C89.1908 8.84905 88.1832 8.11956 88.469 7.24112C88.597 6.84803 88.457 6.41723 88.1224 6.17449C87.3746 5.63205 87.7603 4.44966 88.6841 4.44966C89.0973 4.44966 89.464 4.18361 89.5919 3.79073Z" fill="#6941C6"/>
<path d="M58.5572 43.5837L48.5158 53.6115C48.0794 54.0484 47.8333 54.6414 47.8333 55.2589V57.5891H50.1666C50.7849 57.5891 51.3788 57.3432 51.8163 56.9063L61.8577 46.8786" stroke="white" stroke-width="1.5" stroke-linecap="round" stroke-linejoin="round"/>
<path d="M63.8248 44.9143L61.7329 47.0033L58.4336 43.7085L60.5254 41.6195C60.9816 41.1639 61.7201 41.1639 62.1751 41.6195L63.8248 43.2669C64.2809 43.7224 64.2809 44.4599 63.8248 44.9143V44.9143Z" stroke="white" stroke-width="1.5" stroke-linecap="round" stroke-linejoin="round"/>
<path d="M46.8729 44.5429C46.9868 44.6568 46.9868 44.8415 46.8729 44.9554C46.759 45.0693 46.5743 45.0693 46.4604 44.9554C46.3465 44.8415 46.3465 44.6568 46.4604 44.5429C46.5743 44.429 46.759 44.429 46.8729 44.5429Z" stroke="white" stroke-width="1.5" stroke-linecap="round" stroke-linejoin="round"/>
<path d="M42.2062 44.5429C42.3201 44.6568 42.3201 44.8415 42.2062 44.9554C42.0923 45.0693 41.9076 45.0693 41.7937 44.9554C41.6798 44.8415 41.6798 44.6568 41.7937 44.5429C41.9076 44.429 42.0923 44.429 42.2062 44.5429Z" stroke="white" stroke-width="1.5" stroke-linecap="round" stroke-linejoin="round"/>
<path d="M51.5394 44.5429C51.6533 44.6568 51.6533 44.8415 51.5394 44.9554C51.4255 45.0693 51.2408 45.0693 51.1269 44.9554C51.013 44.8415 51.013 44.6568 51.1269 44.5429C51.2408 44.429 51.4255 44.429 51.5394 44.5429Z" stroke="white" stroke-width="1.5" stroke-linecap="round" stroke-linejoin="round"/>
<path d="M42.2062 49.2627C42.3201 49.3766 42.3201 49.5612 42.2062 49.6752C42.0923 49.7891 41.9076 49.7891 41.7937 49.6752C41.6798 49.5612 41.6798 49.3766 41.7937 49.2627C41.9076 49.1488 42.0923 49.1488 42.2062 49.2627Z" stroke="white" stroke-width="1.5" stroke-linecap="round" stroke-linejoin="round"/>
<path d="M42.2062 53.9231C42.3201 54.037 42.3201 54.2216 42.2062 54.3356C42.0923 54.4495 41.9076 54.4495 41.7937 54.3356C41.6798 54.2216 41.6798 54.037 41.7937 53.9231C41.9076 53.8092 42.0923 53.8092 42.2062 53.9231Z" stroke="white" stroke-width="1.5" stroke-linecap="round" stroke-linejoin="round"/>
<path d="M42.2062 58.5832C42.3201 58.6971 42.3201 58.8818 42.2062 58.9957C42.0923 59.1096 41.9076 59.1096 41.7937 58.9957C41.6798 58.8818 41.6798 58.6971 41.7937 58.5832C41.9076 58.4693 42.0923 58.4693 42.2062 58.5832Z" stroke="white" stroke-width="1.5" stroke-linecap="round" stroke-linejoin="round"/>
<path d="M42.2062 63.2436C42.3201 63.3575 42.3201 63.5422 42.2062 63.6561C42.0923 63.77 41.9076 63.77 41.7937 63.6561C41.6798 63.5422 41.6798 63.3575 41.7937 63.2436C41.9076 63.1297 42.0923 63.1297 42.2062 63.2436Z" stroke="white" stroke-width="1.5" stroke-linecap="round" stroke-linejoin="round"/>
<path d="M46.8729 63.2436C46.9868 63.3575 46.9868 63.5422 46.8729 63.6561C46.759 63.77 46.5743 63.77 46.4604 63.6561C46.3465 63.5422 46.3465 63.3575 46.4604 63.2436C46.5743 63.1297 46.759 63.1297 46.8729 63.2436Z" stroke="white" stroke-width="1.5" stroke-linecap="round" stroke-linejoin="round"/>
<path d="M51.5394 63.2436C51.6533 63.3575 51.6533 63.5422 51.5394 63.6561C51.4255 63.77 51.2408 63.77 51.1269 63.6561C51.013 63.5422 51.013 63.3575 51.1269 63.2436C51.2408 63.1297 51.4255 63.1297 51.5394 63.2436Z" stroke="white" stroke-width="1.5" stroke-linecap="round" stroke-linejoin="round"/>
<path d="M56.2062 63.2087C56.3201 63.3226 56.3201 63.5073 56.2062 63.6212C56.0923 63.7351 55.9076 63.7351 55.7937 63.6212C55.6798 63.5073 55.6798 63.3226 55.7937 63.2087C55.9076 63.0948 56.0923 63.0948 56.2062 63.2087Z" stroke="white" stroke-width="1.5" stroke-linecap="round" stroke-linejoin="round"/>
<path d="M60.8729 63.2087C60.9868 63.3226 60.9868 63.5073 60.8729 63.6212C60.759 63.7351 60.5743 63.7351 60.4604 63.6212C60.3465 63.5073 60.3465 63.3226 60.4604 63.2087C60.5743 63.0948 60.759 63.0948 60.8729 63.2087Z" stroke="white" stroke-width="1.5" stroke-linecap="round" stroke-linejoin="round"/>
<path d="M60.8729 53.8882C60.9868 54.0021 60.9868 54.1867 60.8729 54.3006C60.759 54.4145 60.5743 54.4145 60.4604 54.3006C60.3465 54.1867 60.3465 54.0021 60.4604 53.8882C60.5743 53.7743 60.759 53.7743 60.8729 53.8882Z" stroke="white" stroke-width="1.5" stroke-linecap="round" stroke-linejoin="round"/>
<path d="M60.8729 58.5483C60.9868 58.6622 60.9868 58.8469 60.8729 58.9608C60.759 59.0747 60.5743 59.0747 60.4604 58.9608C60.3465 58.8469 60.3465 58.6622 60.4604 58.5483C60.5743 58.4344 60.759 58.4344 60.8729 58.5483Z" stroke="white" stroke-width="1.5" stroke-linecap="round" stroke-linejoin="round"/>
<defs>
<linearGradient id="paint0_linear_20_437" x1="-0.000933669" y1="59.954" x2="59.9537" y2="-0.000729974" gradientUnits="userSpaceOnUse">
<stop stop-color="#53389E"/>
<stop offset="1" stop-color="#7F56D9"/>
</linearGradient>
</defs>
</svg>
