<svg width="122" height="106" viewBox="0 0 122 106" fill="none" xmlns="http://www.w3.org/2000/svg">
<path d="M115.592 50.7192C115.878 49.84 117.122 49.84 117.408 50.7192C117.536 51.1121 117.903 51.3781 118.316 51.3781C119.24 51.3781 119.625 52.5605 118.878 53.103C118.543 53.3457 118.403 53.7765 118.531 54.1696C118.817 55.048 117.809 55.7775 117.061 55.2351C116.727 54.9924 116.273 54.9924 115.939 55.2351C115.191 55.7775 114.183 55.048 114.469 54.1696C114.597 53.7765 114.457 53.3457 114.122 53.103C113.375 52.5605 113.76 51.3781 114.684 51.3781C115.097 51.3781 115.464 51.1121 115.592 50.7192Z" fill="#6941C6"/>
<rect x="-0.707645" width="74.9438" height="74.9438" rx="22.4824" transform="matrix(0.707645 -0.706569 0.707645 0.706569 0.293116 52.4209)" stroke="#7CD4FD" stroke-dasharray="3 3"/>
<rect width="59.9544" height="59.9544" rx="17.862" transform="matrix(0.707645 -0.706569 0.707645 0.706569 10.5 52.9209)" fill="url(#paint0_linear_20_413)"/>
<path d="M88.7735 87.1049C89.0024 86.4015 89.9976 86.4015 90.2265 87.1049C90.3288 87.4192 90.6222 87.632 90.9527 87.632C91.6917 87.632 92.0003 88.578 91.4021 89.0119C91.1344 89.2061 91.0224 89.5507 91.1248 89.8652C91.3534 90.568 90.5473 91.1515 89.9491 90.7176C89.6815 90.5235 89.3185 90.5235 89.0509 90.7176C88.4527 91.1515 87.6466 90.568 87.8752 89.8652C87.9776 89.5507 87.8656 89.2061 87.5979 89.0119C86.9997 88.578 87.3083 87.632 88.0473 87.632C88.3778 87.632 88.6712 87.4192 88.7735 87.1049Z" fill="#6941C6"/>
<path d="M8.59186 87.663C8.87796 86.7839 10.122 86.7839 10.4081 87.663C10.536 88.0559 10.9027 88.322 11.3159 88.322C12.2397 88.322 12.6254 89.5044 11.8776 90.0468C11.543 90.2895 11.403 90.7203 11.531 91.1134C11.8168 91.9919 10.8092 92.7214 10.0614 92.1789C9.72693 91.9363 9.27307 91.9363 8.93857 92.1789C8.19082 92.7214 7.18319 91.9919 7.46905 91.1134C7.59697 90.7203 7.45697 90.2895 7.12236 90.0468C6.37462 89.5044 6.76035 88.322 7.68412 88.322C8.09728 88.322 8.46401 88.0559 8.59186 87.663Z" fill="#6941C6"/>
<path d="M10.5919 14.7739C10.878 13.8947 12.122 13.8947 12.4081 14.7739C12.536 15.1668 12.9027 15.4328 13.3159 15.4328C14.2397 15.4328 14.6254 16.6152 13.8776 17.1576C13.543 17.4004 13.403 17.8312 13.531 18.2243C13.8168 19.1027 12.8092 19.8322 12.0614 19.2898C11.7269 19.0471 11.2731 19.0471 10.9386 19.2898C10.1908 19.8322 9.18319 19.1027 9.46905 18.2243C9.59697 17.8312 9.45697 17.4004 9.12236 17.1576C8.37462 16.6152 8.76035 15.4328 9.68412 15.4328C10.0973 15.4328 10.464 15.1668 10.5919 14.7739Z" fill="#6941C6"/>
<path d="M89.5919 3.79073C89.878 2.91154 91.122 2.91154 91.4081 3.79073C91.536 4.18361 91.9027 4.44966 92.3159 4.44966C93.2397 4.44966 93.6254 5.63205 92.8776 6.17449C92.543 6.41723 92.403 6.84803 92.531 7.24112C92.8168 8.11956 91.8092 8.84905 91.0614 8.30661C90.7269 8.06395 90.2731 8.06395 89.9386 8.30661C89.1908 8.84905 88.1832 8.11956 88.469 7.24112C88.597 6.84803 88.457 6.41723 88.1224 6.17449C87.3746 5.63205 87.7603 4.44966 88.6841 4.44966C89.0973 4.44966 89.464 4.18361 89.5919 3.79073Z" fill="#6941C6"/>
<path d="M62.5335 51.25C63.1122 51.25 63.5835 51.7213 63.5835 52.3V53.7C63.5835 54.2787 63.1122 54.75 62.5335 54.75H61.1335C60.5548 54.75 60.0835 54.2787 60.0835 53.7V52.3C60.0835 51.7213 60.5548 51.25 61.1335 51.25H62.5335ZM62.5335 49.5H61.1335C59.5877 49.5 58.3335 50.7542 58.3335 52.3V53.7C58.3335 55.247 59.5877 56.5 61.1335 56.5H62.5335C64.0793 56.5 65.3335 55.2458 65.3335 53.7V52.3C65.3335 50.7542 64.0793 49.5 62.5335 49.5Z" fill="white"/>
<path d="M43.8667 51.25C44.4454 51.25 44.9167 51.7213 44.9167 52.3V53.7C44.9167 54.2787 44.4454 54.75 43.8667 54.75H42.4667C41.8881 54.75 41.4167 54.2787 41.4167 53.7V52.3C41.4167 51.7213 41.8881 51.25 42.4667 51.25H43.8667ZM43.8667 49.5H42.4667C40.9209 49.5 39.6667 50.7542 39.6667 52.3V53.7C39.6667 55.2458 40.9209 56.5 42.4667 56.5H43.8667C45.4126 56.5 46.6667 55.2458 46.6667 53.7V52.3C46.6667 50.7542 45.4126 49.5 43.8667 49.5Z" fill="white"/>
<path d="M53.2 41.9167C53.7787 41.9167 54.25 42.3881 54.25 42.9667V44.3667C54.25 44.9454 53.7787 45.4167 53.2 45.4167H51.8C51.2213 45.4167 50.75 44.9454 50.75 44.3667V42.9667C50.75 42.3881 51.2213 41.9167 51.8 41.9167H53.2ZM53.2 40.1667H51.8C50.2542 40.1667 49 41.4209 49 42.9667V44.3667C49 45.9126 50.2542 47.1667 51.8 47.1667H53.2C54.7458 47.1667 56 45.9126 56 44.3667V42.9667C56 41.4209 54.7458 40.1667 53.2 40.1667Z" fill="white"/>
<path d="M53.2 60.5835C53.7787 60.5835 54.25 61.0548 54.25 61.6335V63.0335C54.25 63.6122 53.7787 64.0835 53.2 64.0835H51.8C51.2213 64.0835 50.75 63.6122 50.75 63.0335V61.6335C50.75 61.0548 51.2213 60.5835 51.8 60.5835H53.2ZM53.2 58.8335H51.8C50.2542 58.8335 49 60.0877 49 61.6335V63.0335C49 64.5805 50.2542 65.8335 51.8 65.8335H53.2C54.7458 65.8335 56 64.5793 56 63.0335V61.6335C56 60.0877 54.7458 58.8335 53.2 58.8335Z" fill="white"/>
<path d="M45.0801 47.3463C45.8384 46.3523 46.7916 45.5158 47.8836 44.8928" stroke="white" stroke-width="1.5" stroke-linecap="round" stroke-linejoin="round" stroke-dasharray="0.01 2.13"/>
<path d="M59.92 58.6538C59.1616 59.6478 58.2085 60.4843 57.1165 61.1073" stroke="white" stroke-width="1.5" stroke-linecap="round" stroke-linejoin="round" stroke-dasharray="0.01 2.13"/>
<path d="M46.8463 60.42C45.8523 59.6616 45.0158 58.7085 44.3928 57.6165" stroke="white" stroke-width="1.5" stroke-linecap="round" stroke-linejoin="round" stroke-dasharray="0.01 2.13"/>
<path d="M58.1536 45.5801C59.1476 46.3384 59.9841 47.2916 60.6071 48.3836" stroke="white" stroke-width="1.5" stroke-linecap="round" stroke-linejoin="round" stroke-dasharray="0.01 2.13"/>
<defs>
<linearGradient id="paint0_linear_20_413" x1="-0.000933669" y1="59.954" x2="59.9537" y2="-0.000729974" gradientUnits="userSpaceOnUse">
<stop stop-color="#53389E"/>
<stop offset="1" stop-color="#7F56D9"/>
</linearGradient>
</defs>
</svg>
